<svg width="35" height="35" viewBox="0 0 35 35" fill="none" xmlns="http://www.w3.org/2000/svg">
<path d="M31.0334 6.41676C27.8445 2.48898 22.9833 0 17.5 0C13.3778 0 9.56668 1.43885 6.57223 3.84996C2.52779 7.03885 0 11.9778 0 17.5C0 22.9833 2.48886 27.8444 6.41664 31.0333C9.41109 33.5221 13.3 35 17.5 35C21.9333 35 25.9389 33.3278 29.05 30.6445C32.6667 27.4167 35 22.75 35 17.5C35 13.3 33.5223 9.41121 31.0334 6.41676ZM21.5056 18.589C21.5056 19.6001 20.9612 20.5722 20.1056 21.0777L14.6223 24.3445C14.1556 24.6167 13.65 24.7722 13.1055 24.7722C12.1333 24.7722 11.1612 24.2667 10.6167 23.3723C9.80004 21.9723 10.2277 20.1833 11.6277 19.3666L15.6722 16.9555V12.0555C15.6722 10.461 16.9944 9.13879 18.5889 9.13879C20.1833 9.13879 21.5056 10.461 21.5056 12.0555V18.589Z" fill="#0057CD"/>
</svg>
